<svg xmlns="http://www.w3.org/2000/svg" viewBox="0 0 110.11 43.89"><defs><style>.cls-1{fill:#fff;}</style></defs><title>launcher_back</title><g id="Layer_2" data-name="Layer 2"><g id="Layer_1-2" data-name="Layer 1"><path class="cls-1" d="M28.69,11.29a13.23,13.23,0,0,1-.85,5,8.43,8.43,0,0,1-2.62,3.53,11.74,11.74,0,0,1-4.47,2.09,25.64,25.64,0,0,1-6.41.7,25.67,25.67,0,0,1-6.42-.7,11.76,11.76,0,0,1-4.46-2.09A8.58,8.58,0,0,1,.85,16.26a13.23,13.23,0,0,1-.85-5,13.23,13.23,0,0,1,.85-5A8.58,8.58,0,0,1,3.46,2.79,11.92,11.92,0,0,1,7.92.69,26.18,26.18,0,0,1,14.34,0a26.15,26.15,0,0,1,6.41.69,11.9,11.9,0,0,1,4.47,2.1,8.43,8.43,0,0,1,2.62,3.53A13.23,13.23,0,0,1,28.69,11.29Zm-27,0a12.18,12.18,0,0,0,.78,4.63A7.38,7.38,0,0,0,4.79,19a10.14,10.14,0,0,0,4,1.74,25.52,25.52,0,0,0,5.59.54,25.49,25.49,0,0,0,5.58-.54,10.26,10.26,0,0,0,4-1.74,7.33,7.33,0,0,0,2.36-3.09A12.18,12.18,0,0,0,27,11.29a12.19,12.19,0,0,0-.78-4.62,7.39,7.39,0,0,0-2.36-3.11,10.1,10.1,0,0,0-4-1.73,25.49,25.49,0,0,0-5.58-.54,25.52,25.52,0,0,0-5.59.54,10,10,0,0,0-4,1.73A7.45,7.45,0,0,0,2.44,6.67,12.19,12.19,0,0,0,1.66,11.29Z"/><path class="cls-1" d="M56.63,8.13a9,9,0,0,1-.44,3,5.58,5.58,0,0,1-1.22,2,5.3,5.3,0,0,1-1.88,1.25,11.67,11.67,0,0,1-2.43.67,18.35,18.35,0,0,1-2.85.21H38.88v5.34a3.35,3.35,0,0,1-.15,1,.6.6,0,0,1-.61.46.72.72,0,0,1-.74-.44,3,3,0,0,1-.16-1V1.19a1.61,1.61,0,0,1,.05-.44.33.33,0,0,1,.16-.2.68.68,0,0,1,.31-.06H48.05a13.18,13.18,0,0,1,2.9.3,11.08,11.08,0,0,1,2.38.84A5.66,5.66,0,0,1,55.12,3a6.18,6.18,0,0,1,1.12,2.13A9.92,9.92,0,0,1,56.63,8.13ZM55,8.15a7.63,7.63,0,0,0-.61-3.3,4.44,4.44,0,0,0-1.88-2,8.9,8.9,0,0,0-3.19-1,37.91,37.91,0,0,0-4.59-.24H38.88V14.16H44.7c1.77,0,3.3-.06,4.6-.17a9.1,9.1,0,0,0,3.2-.78,4,4,0,0,0,1.87-1.81A7.3,7.3,0,0,0,55,8.15Z"/><path class="cls-1" d="M70.55,1.41A5.28,5.28,0,0,1,71,.63a.69.69,0,0,1,1,0,3.64,3.64,0,0,1,.54.79L83.36,20.86a1.5,1.5,0,0,1,.22.76.74.74,0,0,1-.2.55.63.63,0,0,1-.47.19.91.91,0,0,1-.53-.18,2,2,0,0,1-.54-.68l-3.32-6H64.61l-3.36,6.09a1.6,1.6,0,0,1-.49.6,1.05,1.05,0,0,1-.56.18.54.54,0,0,1-.49-.23,1.17,1.17,0,0,1-.16-.63.92.92,0,0,1,.07-.31c.05-.1.1-.22.17-.35ZM78,14.34,71.57,2.68,65.18,14.34Z"/><path class="cls-1" d="M91.68,22.17l-.46,0a.41.41,0,0,1-.25-.09.32.32,0,0,1-.09-.21V1.68a2.05,2.05,0,0,1,.17-.89.74.74,0,0,1,.74-.38.57.57,0,0,1,.61.4,2.74,2.74,0,0,1,.14.87v19.2h16.77a.85.85,0,0,1,.6.2.66.66,0,0,1,.2.44.62.62,0,0,1-.2.45.85.85,0,0,1-.6.2Z"/><path class="cls-1" d="M19.35,39.34a2.32,2.32,0,0,1-1,.91,3.25,3.25,0,0,1-1.57.35,3.78,3.78,0,0,1-1.62-.33,2.84,2.84,0,0,1-1.13-.91A2.69,2.69,0,0,1,13.59,38h1.26a1.88,1.88,0,0,0,.27.76,1.74,1.74,0,0,0,.65.61,2,2,0,0,0,1,.24,1.66,1.66,0,0,0,1.2-.41,1.49,1.49,0,0,0,.41-1.07,1.4,1.4,0,0,0-.29-.91,2.16,2.16,0,0,0-.72-.55,10,10,0,0,0-1.17-.44,11.58,11.58,0,0,1-1.4-.54,2.41,2.41,0,0,1-.9-.76,2.26,2.26,0,0,1-.37-1.34,2.34,2.34,0,0,1,.35-1.26,2.28,2.28,0,0,1,1-.84,3.51,3.51,0,0,1,1.51-.3,3.22,3.22,0,0,1,2.14.66,2.5,2.5,0,0,1,.93,1.67H18.19a1.65,1.65,0,0,0-.56-1,1.77,1.77,0,0,0-1.23-.41,1.65,1.65,0,0,0-1.14.37,1.48,1.48,0,0,0-.15,1.91,1.91,1.91,0,0,0,.69.52A11.22,11.22,0,0,0,17,35.4a10.37,10.37,0,0,1,1.42.55,2.44,2.44,0,0,1,.92.78,2.68,2.68,0,0,1,.06,2.61Z"/><path class="cls-1" d="M28,34.06a3.19,3.19,0,0,1,.76,2.3v4.15H27.58v-4A2.26,2.26,0,0,0,27,34.83a1.94,1.94,0,0,0-1.48-.57,2,2,0,0,0-1.56.63,2.6,2.6,0,0,0-.58,1.84v3.78H22.22V30.89h1.19v4.17a2.43,2.43,0,0,1,1-1.34,2.81,2.81,0,0,1,1.6-.46A2.65,2.65,0,0,1,28,34.06Z"/><path class="cls-1" d="M36.63,33.72A3.16,3.16,0,0,1,37.91,35a4.34,4.34,0,0,1,0,3.89,3.13,3.13,0,0,1-1.28,1.27,4,4,0,0,1-3.67,0,3.22,3.22,0,0,1-1.29-1.27,4.34,4.34,0,0,1,0-3.89A3.24,3.24,0,0,1,33,33.72a4,4,0,0,1,3.67,0Zm-3,.89a2.11,2.11,0,0,0-.87.88,3.37,3.37,0,0,0,0,2.91,2.17,2.17,0,0,0,.87.88,2.61,2.61,0,0,0,2.35,0,2.17,2.17,0,0,0,.87-.88,3.37,3.37,0,0,0,0-2.91,2.11,2.11,0,0,0-.87-.88,2.53,2.53,0,0,0-2.35,0Z"/><path class="cls-1" d="M46.52,33.72A3.07,3.07,0,0,1,47.68,35a4.61,4.61,0,0,1,0,3.89,3,3,0,0,1-1.16,1.27,3.27,3.27,0,0,1-1.69.44,2.91,2.91,0,0,1-1.76-.52,2.8,2.8,0,0,1-1-1.39v5.2H40.89V33.37h1.18v1.82a2.73,2.73,0,0,1,1-1.38,2.92,2.92,0,0,1,1.76-.53A3.27,3.27,0,0,1,46.52,33.72Zm-3.28.93a2.27,2.27,0,0,0-.87.92A3,3,0,0,0,42.06,37a3,3,0,0,0,.31,1.37,2.34,2.34,0,0,0,.87.92,2.53,2.53,0,0,0,1.25.32,2.3,2.3,0,0,0,1.76-.69,3.12,3.12,0,0,0,0-3.84,2.3,2.3,0,0,0-1.76-.69A2.52,2.52,0,0,0,43.24,34.65Z"/><path class="cls-1" d="M61.43,40.51l-2-2.21a2.36,2.36,0,0,1-.08.52,2,2,0,0,1-.77,1.29,2.31,2.31,0,0,1-1.5.49,2.88,2.88,0,0,1-1.43-.34,2.51,2.51,0,0,1-1-1,2.91,2.91,0,0,1-.35-1.43,3,3,0,0,1,.32-1.4,2.15,2.15,0,0,1,.85-.89,2.29,2.29,0,0,1,1.18-.31l.29,0-.2-.25a4.15,4.15,0,0,1-.55-.84,2.2,2.2,0,0,1-.19-.93,1.95,1.95,0,0,1,1.07-1.74,2.65,2.65,0,0,1,1.27-.29,2.4,2.4,0,0,1,1.71.56,2.24,2.24,0,0,1,.7,1.41,2.25,2.25,0,0,1,.08.58,1,1,0,0,1,0,.2H59.71a.75.75,0,0,0,0-.22c0-.08,0-.14,0-.17a1.4,1.4,0,0,0-.36-1,1.29,1.29,0,0,0-1-.36,1.25,1.25,0,0,0-.91.34,1.14,1.14,0,0,0-.33.82,1.47,1.47,0,0,0,.15.69,3.57,3.57,0,0,0,.49.67l4.86,5.75Zm-3.18-1.38A1.55,1.55,0,0,0,58.71,38a1.53,1.53,0,0,0-.26-.89,1.79,1.79,0,0,0-.67-.64,1.73,1.73,0,0,0-.87-.24,1.54,1.54,0,0,0-1.11.43,1.63,1.63,0,0,0-.44,1.23,1.67,1.67,0,0,0,.49,1.27,1.73,1.73,0,0,0,1.23.47A1.57,1.57,0,0,0,58.25,39.13Z"/><path class="cls-1" d="M70,36.82v3.69H68.84V31.35h2.91a3.34,3.34,0,0,1,2.36.73,2.63,2.63,0,0,1,.78,2,2.55,2.55,0,0,1-.81,2,3.39,3.39,0,0,1-2.33.72Zm3.18-1.44a2,2,0,0,0,0-2.6,2.19,2.19,0,0,0-1.55-.45H70v3.5h1.63A2.19,2.19,0,0,0,73.2,35.38Z"/><path class="cls-1" d="M77.25,30.75a.86.86,0,0,1,.59-.2.85.85,0,0,1,.58.2.75.75,0,0,1,0,1.06.85.85,0,0,1-.58.2.86.86,0,0,1-.59-.2.75.75,0,0,1,0-1.06Zm1.17,2.62v7.14H77.24V33.37Z"/><path class="cls-1" d="M86.72,34a3.14,3.14,0,0,1,1.1,2H86.57a1.81,1.81,0,0,0-.7-1.2,2.35,2.35,0,0,0-1.44-.44,2.3,2.3,0,0,0-1.14.29,2,2,0,0,0-.82.88,3.49,3.49,0,0,0,0,2.92,2,2,0,0,0,.82.88,2.52,2.52,0,0,0,2.58-.16,1.81,1.81,0,0,0,.7-1.21h1.25a3.09,3.09,0,0,1-1.1,2,3.52,3.52,0,0,1-2.26.72,3.75,3.75,0,0,1-1.83-.44,3.16,3.16,0,0,1-1.24-1.27,4.43,4.43,0,0,1,0-3.89,3.19,3.19,0,0,1,1.24-1.28,3.75,3.75,0,0,1,1.83-.44A3.52,3.52,0,0,1,86.72,34Z"/><path class="cls-1" d="M94.26,40.51,91.53,37.3v3.21H90.34V30.89h1.19v5.59l2.69-3.11h1.44l-3.2,3.55,3.28,3.59Z"/></g></g></svg>