<svg xmlns="http://www.w3.org/2000/svg" viewBox="0 0 172.68 90.18"><defs><style>.cls-1{fill:#fff;}</style></defs><title>launcher2</title><g id="Layer_2" data-name="Layer 2"><g id="Layer_1-2" data-name="Layer 1"><path class="cls-1" d="M70,30h27.1a1.49,1.49,0,0,0,1.44-1.09l6-21A1.5,1.5,0,0,0,103.13,6H66.57L65.5,1.18A1.52,1.52,0,0,0,64,0h-9.1a1.5,1.5,0,0,0,0,3h7.9l5.41,24.38A4.49,4.49,0,0,0,70,36h27.1a1.5,1.5,0,0,0,0-3H70a1.5,1.5,0,0,1,0-3Z"/><path class="cls-1" d="M68.53,40.5A4.5,4.5,0,1,0,73,36,4.51,4.51,0,0,0,68.53,40.5Z"/><path class="cls-1" d="M89.63,40.5a4.5,4.5,0,1,0,4.5-4.5A4.51,4.51,0,0,0,89.63,40.5Z"/><path class="cls-1" d="M69.06,58.33c0,6.5-4,9.94-8.76,9.94-5,0-8.49-3.86-8.49-9.58,0-6,3.73-9.91,8.77-9.91S69.06,52.73,69.06,58.33Zm-14.64.31c0,4,2.18,7.64,6,7.64s6-3.55,6-7.84c0-3.75-2-7.67-6-7.67S54.42,54.49,54.42,58.64Z"/><path class="cls-1" d="M74.24,58.83c0-1.73-.06-3.13-.11-4.42h2.21l.11,2.32h.06a5.32,5.32,0,0,1,4.81-2.63c3.28,0,5.74,2.77,5.74,6.89,0,4.87-3,7.28-6.16,7.28a4.74,4.74,0,0,1-4.17-2.13h-.06v7.37H74.24Zm2.43,3.62a5.07,5.07,0,0,0,.12,1,3.8,3.8,0,0,0,3.69,2.89c2.61,0,4.12-2.13,4.12-5.24,0-2.71-1.43-5-4-5a4,4,0,0,0-3.73,3,4.27,4.27,0,0,0-.17,1Z"/><path class="cls-1" d="M99.78,68l-.2-1.71H99.5a5.05,5.05,0,0,1-4.15,2,3.86,3.86,0,0,1-4.14-3.89c0-3.28,2.91-5.07,8.15-5v-.28a2.8,2.8,0,0,0-3.08-3.14,6.72,6.72,0,0,0-3.53,1l-.56-1.62a8.38,8.38,0,0,1,4.45-1.21c4.14,0,5.15,2.83,5.15,5.55v5.06A18.8,18.8,0,0,0,102,68Zm-.37-6.91c-2.69-.06-5.74.42-5.74,3A2.19,2.19,0,0,0,96,66.45a3.36,3.36,0,0,0,3.27-2.27,2.38,2.38,0,0,0,.14-.78Z"/><path class="cls-1" d="M107.87,48.08h2.46V68h-2.46Z"/><path class="cls-1" d="M3.19,87.05V82.76L0,76.94H1.48l1.43,2.79c.39.76.69,1.38,1,2.08h0c.29-.66.63-1.32,1-2.08l1.46-2.79H7.9l-3.39,5.8v4.31Z"/><path class="cls-1" d="M15.57,83.36A3.55,3.55,0,0,1,12,87.21a3.45,3.45,0,0,1-3.48-3.73,3.55,3.55,0,0,1,3.6-3.86A3.44,3.44,0,0,1,15.57,83.36Zm-5.76.07c0,1.59.91,2.79,2.2,2.79S14.22,85,14.22,83.4c0-1.23-.62-2.79-2.18-2.79S9.81,82.05,9.81,83.43Z"/><path class="cls-1" d="M24.43,85.07q0,1.13.06,2H23.32l-.07-1.19h0a2.73,2.73,0,0,1-2.4,1.35c-1.14,0-2.51-.63-2.51-3.18V79.79h1.32v4c0,1.38.42,2.31,1.62,2.31A1.91,1.91,0,0,0,23,84.92a1.87,1.87,0,0,0,.12-.68V79.79h1.32Z"/><path class="cls-1" d="M27.75,82.05c0-.85,0-1.59-.06-2.26h1.15l.05,1.42H29a2.18,2.18,0,0,1,2-1.59,1.38,1.38,0,0,1,.37,0v1.24a2,2,0,0,0-.45,0,1.85,1.85,0,0,0-1.77,1.69,3.72,3.72,0,0,0-.06.62v3.87h-1.3Z"/><path class="cls-1" d="M37.9,85.7a3.51,3.51,0,0,0,1.74.52c1,0,1.41-.48,1.41-1.08s-.37-1-1.35-1.33c-1.3-.47-1.92-1.19-1.92-2.06a2.24,2.24,0,0,1,2.51-2.13,3.6,3.6,0,0,1,1.78.45l-.33,1a2.81,2.81,0,0,0-1.48-.42c-.78,0-1.22.45-1.22,1s.44.87,1.38,1.23c1.26.48,1.91,1.11,1.91,2.19,0,1.28-1,2.18-2.72,2.18a4.15,4.15,0,0,1-2-.5Z"/><path class="cls-1" d="M45.15,76.4h1.32v4.53h0a2.4,2.4,0,0,1,.94-.93,2.68,2.68,0,0,1,1.35-.38c1,0,2.54.6,2.54,3.11v4.32H50V82.88c0-1.17-.44-2.16-1.68-2.16A1.89,1.89,0,0,0,46.56,82a1.5,1.5,0,0,0-.09.63v4.38H45.15Z"/><path class="cls-1" d="M61.17,83.36a3.55,3.55,0,0,1-3.62,3.85,3.45,3.45,0,0,1-3.48-3.73,3.55,3.55,0,0,1,3.6-3.86A3.44,3.44,0,0,1,61.17,83.36Zm-5.76.07c0,1.59.91,2.79,2.2,2.79S59.82,85,59.82,83.4c0-1.23-.62-2.79-2.18-2.79S55.41,82.05,55.41,83.43Z"/><path class="cls-1" d="M64,82.16c0-.93,0-1.68-.06-2.37h1.18L65.14,81h0a2.87,2.87,0,0,1,2.58-1.41c1.76,0,3.08,1.49,3.08,3.69,0,2.61-1.59,3.9-3.3,3.9a2.56,2.56,0,0,1-2.24-1.14h0v4H64Zm1.3,1.93a2.87,2.87,0,0,0,.06.54,2,2,0,0,0,2,1.55c1.4,0,2.21-1.14,2.21-2.81,0-1.45-.77-2.7-2.16-2.7a2.12,2.12,0,0,0-2,1.64,2.34,2.34,0,0,0-.09.54Z"/><path class="cls-1" d="M73.62,82.16c0-.93,0-1.68-.06-2.37h1.18L74.8,81h0a2.87,2.87,0,0,1,2.58-1.41c1.76,0,3.08,1.49,3.08,3.69,0,2.61-1.59,3.9-3.3,3.9A2.56,2.56,0,0,1,75,86.07h0v4h-1.3Zm1.3,1.93a2.87,2.87,0,0,0,.06.54,2,2,0,0,0,2,1.55c1.4,0,2.21-1.14,2.21-2.81,0-1.45-.77-2.7-2.16-2.7a2.12,2.12,0,0,0-2,1.64,2.34,2.34,0,0,0-.09.54Z"/><path class="cls-1" d="M84.75,77.75a.82.82,0,0,1-1.64,0,.81.81,0,0,1,.83-.83A.79.79,0,0,1,84.75,77.75Zm-1.47,9.3V79.79H84.6v7.26Z"/><path class="cls-1" d="M87.91,81.75c0-.75,0-1.36-.06-2H89L89.1,81h0a2.67,2.67,0,0,1,2.4-1.37c1,0,2.56.6,2.56,3.09v4.34H92.77V82.86c0-1.17-.43-2.14-1.68-2.14a1.94,1.94,0,0,0-1.86,2v4.37H87.91Z"/><path class="cls-1" d="M103.62,79.79c0,.52-.06,1.11-.06,2V86c0,1.66-.33,2.68-1,3.31a3.83,3.83,0,0,1-2.64.87,4.65,4.65,0,0,1-2.41-.6l.33-1a4.09,4.09,0,0,0,2.13.57c1.35,0,2.34-.71,2.34-2.54V85.8h0A2.6,2.6,0,0,1,99.93,87a3.25,3.25,0,0,1-3.09-3.54c0-2.46,1.6-3.86,3.27-3.86a2.4,2.4,0,0,1,2.26,1.26h0l.06-1.09Zm-1.37,2.86a1.91,1.91,0,0,0-1.92-2c-1.26,0-2.16,1.06-2.16,2.74,0,1.43.72,2.61,2.15,2.61a1.93,1.93,0,0,0,1.83-1.35,2.42,2.42,0,0,0,.1-.7Z"/><path class="cls-1" d="M115.2,87.05l-.11-.92h0a2.72,2.72,0,0,1-2.22,1.08,2.06,2.06,0,0,1-2.22-2.08c0-1.76,1.56-2.72,4.36-2.7v-.15a1.49,1.49,0,0,0-1.65-1.68,3.63,3.63,0,0,0-1.89.54l-.3-.87a4.51,4.51,0,0,1,2.39-.65c2.22,0,2.76,1.52,2.76,3v2.72a10.26,10.26,0,0,0,.12,1.74Zm-.2-3.71c-1.44,0-3.07.23-3.07,1.64a1.17,1.17,0,0,0,1.24,1.26A1.81,1.81,0,0,0,114.93,85a1.48,1.48,0,0,0,.07-.42Z"/><path class="cls-1" d="M119.35,85.7a3.51,3.51,0,0,0,1.74.52c1,0,1.41-.48,1.41-1.08s-.37-1-1.35-1.33c-1.3-.47-1.92-1.19-1.92-2.06a2.24,2.24,0,0,1,2.51-2.13,3.6,3.6,0,0,1,1.78.45l-.33,1a2.81,2.81,0,0,0-1.48-.42c-.78,0-1.22.45-1.22,1s.44.87,1.38,1.23c1.26.48,1.91,1.11,1.91,2.19,0,1.28-1,2.18-2.72,2.18a4.15,4.15,0,0,1-2-.5Z"/><path class="cls-1" d="M126.42,85.7a3.51,3.51,0,0,0,1.74.52c1,0,1.41-.48,1.41-1.08s-.38-1-1.35-1.33c-1.31-.47-1.92-1.19-1.92-2.06a2.23,2.23,0,0,1,2.5-2.13,3.64,3.64,0,0,1,1.79.45l-.33,1a2.85,2.85,0,0,0-1.49-.42c-.78,0-1.21.45-1.21,1s.43.87,1.38,1.23c1.26.48,1.9,1.11,1.9,2.19,0,1.28-1,2.18-2.71,2.18a4.13,4.13,0,0,1-2-.5Z"/><path class="cls-1" d="M135.13,77.75a.77.77,0,0,1-.84.81.78.78,0,0,1-.79-.81.8.8,0,0,1,.82-.83A.78.78,0,0,1,135.13,77.75Zm-1.47,9.3V79.79H135v7.26Z"/><path class="cls-1" d="M138.12,85.7a3.51,3.51,0,0,0,1.74.52c1,0,1.41-.48,1.41-1.08s-.38-1-1.35-1.33c-1.31-.47-1.92-1.19-1.92-2.06a2.23,2.23,0,0,1,2.5-2.13,3.64,3.64,0,0,1,1.79.45L142,81a2.85,2.85,0,0,0-1.49-.42c-.78,0-1.21.45-1.21,1s.43.87,1.38,1.23c1.26.48,1.9,1.11,1.9,2.19,0,1.28-1,2.18-2.71,2.18a4.13,4.13,0,0,1-2-.5Z"/><path class="cls-1" d="M147,77.7v2.09h1.89v1H147v3.92c0,.9.26,1.41,1,1.41a3.22,3.22,0,0,0,.77-.09l.06,1a3.37,3.37,0,0,1-1.17.18,1.84,1.84,0,0,1-1.43-.56,2.71,2.71,0,0,1-.51-1.89v-4h-1.12v-1h1.12V78.05Z"/><path class="cls-1" d="M155.47,87.05l-.1-.92h-.05a2.69,2.69,0,0,1-2.22,1.08,2.06,2.06,0,0,1-2.22-2.08c0-1.76,1.56-2.72,4.37-2.7v-.15a1.5,1.5,0,0,0-1.65-1.68,3.6,3.6,0,0,0-1.89.54l-.3-.87a4.5,4.5,0,0,1,2.38-.65c2.22,0,2.76,1.52,2.76,3v2.72a10.26,10.26,0,0,0,.12,1.74Zm-.19-3.71c-1.44,0-3.08.23-3.08,1.64a1.17,1.17,0,0,0,1.25,1.26A1.8,1.8,0,0,0,155.2,85a1.2,1.2,0,0,0,.08-.42Z"/><path class="cls-1" d="M159.81,81.75c0-.75,0-1.36-.06-2h1.17L161,81h0a2.67,2.67,0,0,1,2.4-1.37c1,0,2.57.6,2.57,3.09v4.34h-1.32V82.86c0-1.17-.44-2.14-1.68-2.14a1.94,1.94,0,0,0-1.86,2v4.37h-1.32Z"/><path class="cls-1" d="M170.79,77.7v2.09h1.89v1h-1.89v3.92c0,.9.25,1.41,1,1.41a3.13,3.13,0,0,0,.76-.09l.06,1a3.32,3.32,0,0,1-1.17.18,1.82,1.82,0,0,1-1.42-.56,2.66,2.66,0,0,1-.51-1.89v-4h-1.13v-1h1.13V78.05Z"/></g></g></svg>