<svg xmlns="http://www.w3.org/2000/svg" viewBox="0 0 141.73 141.73"><defs><style>.cls-1{fill:#f15d5f;}.cls-2{fill:#fff;}</style></defs><title>logo_1</title><g id="Layer_2" data-name="Layer 2"><g id="Layer_1-2" data-name="Layer 1"><rect class="cls-1" width="141.73" height="141.73"/><path class="cls-2" d="M50.71,72.13A12,12,0,0,1,50,76.6a7.62,7.62,0,0,1-2.36,3.18,10.72,10.72,0,0,1-4,1.89,23.85,23.85,0,0,1-5.78.62A23.71,23.71,0,0,1,32,81.67a10.58,10.58,0,0,1-4-1.89,7.68,7.68,0,0,1-2.35-3.18,13.53,13.53,0,0,1,0-8.94A7.75,7.75,0,0,1,28,64.48a10.58,10.58,0,0,1,4-1.89A23.71,23.71,0,0,1,37.79,62a23.85,23.85,0,0,1,5.78.62,10.72,10.72,0,0,1,4,1.89A7.68,7.68,0,0,1,50,67.66,12,12,0,0,1,50.71,72.13Zm-24.33,0a10.94,10.94,0,0,0,.71,4.17,6.56,6.56,0,0,0,2.11,2.78,9.24,9.24,0,0,0,3.56,1.57,23.27,23.27,0,0,0,5,.48,23.27,23.27,0,0,0,5-.48,9.29,9.29,0,0,0,3.57-1.57,6.5,6.5,0,0,0,2.12-2.78,12.57,12.57,0,0,0,0-8.33,6.47,6.47,0,0,0-2.12-2.79,9.29,9.29,0,0,0-3.57-1.57,23.27,23.27,0,0,0-5-.48,23.27,23.27,0,0,0-5,.48,9.24,9.24,0,0,0-3.56,1.57A6.53,6.53,0,0,0,27.09,68,11,11,0,0,0,26.38,72.13Z"/><path class="cls-2" d="M75.86,69.28a8,8,0,0,1-.4,2.73,5,5,0,0,1-1.1,1.84A4.74,4.74,0,0,1,72.67,75a10.61,10.61,0,0,1-2.19.59,15.92,15.92,0,0,1-2.56.2h-8v4.81a3,3,0,0,1-.13.93.54.54,0,0,1-.56.41.61.61,0,0,1-.65-.39,2.69,2.69,0,0,1-.15-.94V63a1.28,1.28,0,0,1,0-.39.32.32,0,0,1,.15-.19.68.68,0,0,1,.27-.05h9.28a11.17,11.17,0,0,1,2.61.28,9.37,9.37,0,0,1,2.15.75,5,5,0,0,1,1.61,1.27,5.61,5.61,0,0,1,1,1.91A9.08,9.08,0,0,1,75.86,69.28Zm-1.5,0a6.9,6.9,0,0,0-.55-3,4,4,0,0,0-1.69-1.77,7.78,7.78,0,0,0-2.87-.86,34.88,34.88,0,0,0-4.13-.22H59.88V74.71h5.24c1.59,0,3,0,4.14-.14a8.15,8.15,0,0,0,2.88-.71,3.55,3.55,0,0,0,1.68-1.63A6.56,6.56,0,0,0,74.36,69.31Z"/><path class="cls-2" d="M88.38,63.24a6.54,6.54,0,0,1,.44-.71.59.59,0,0,1,.48-.19.6.6,0,0,1,.43.18,3.93,3.93,0,0,1,.48.72l9.71,17.5a1.56,1.56,0,0,1,.19.69.66.66,0,0,1-.18.49.54.54,0,0,1-.42.18.85.85,0,0,1-.48-.17,1.82,1.82,0,0,1-.49-.61l-3-5.41H83l-3,5.48a1.38,1.38,0,0,1-.45.54.94.94,0,0,1-.5.17.49.49,0,0,1-.44-.21,1,1,0,0,1-.14-.57.74.74,0,0,1,.06-.28c0-.09.09-.2.15-.31Zm6.67,11.63L89.3,64.38,83.55,74.87Z"/><path class="cls-2" d="M107.4,81.92a2.43,2.43,0,0,1-.42,0,.34.34,0,0,1-.22-.08.26.26,0,0,1-.07-.19c0-.09,0-.21,0-.36V63.48a2,2,0,0,1,.15-.8.66.66,0,0,1,.67-.34.52.52,0,0,1,.55.36,2.45,2.45,0,0,1,.12.78V80.76h15.1a.73.73,0,0,1,.54.19.54.54,0,0,1,.18.39.57.57,0,0,1-.18.41.81.81,0,0,1-.54.17Z"/></g></g></svg>